<mxfile host="Electron" modified="2023-10-07T12:26:25.080Z" agent="Mozilla/5.0 (X11; Linux x86_64) AppleWebKit/537.36 (KHTML, like Gecko) draw.io/22.0.2 Chrome/114.0.5735.289 Electron/25.8.4 Safari/537.36" etag="DbaEynsR1zswTcpXFCuZ" version="22.0.2" type="device">
  <diagram name="Page-1" id="0mUz_p122F18LMq_JWhM">
    <mxGraphModel dx="1434" dy="763" grid="1" gridSize="10" guides="1" tooltips="1" connect="1" arrows="1" fold="1" page="1" pageScale="1" pageWidth="850" pageHeight="1100" math="0" shadow="0">
      <root>
        <mxCell id="0" />
        <mxCell id="1" parent="0" />
        <mxCell id="sKdIwI8YulAPiQ3hanIl-1" value="SMT Constraints" style="rounded=0;whiteSpace=wrap;html=1;" parent="1" vertex="1">
          <mxGeometry x="340" y="160" width="120" height="40" as="geometry" />
        </mxCell>
        <mxCell id="sKdIwI8YulAPiQ3hanIl-2" value="High-level IR (AST)" style="rounded=0;whiteSpace=wrap;html=1;" parent="1" vertex="1">
          <mxGeometry x="340" y="260" width="120" height="40" as="geometry" />
        </mxCell>
        <mxCell id="sKdIwI8YulAPiQ3hanIl-3" value="" style="endArrow=classic;html=1;rounded=0;exitX=0.5;exitY=1;exitDx=0;exitDy=0;entryX=0.5;entryY=0;entryDx=0;entryDy=0;fontSize=12;" parent="1" source="sKdIwI8YulAPiQ3hanIl-1" target="sKdIwI8YulAPiQ3hanIl-2" edge="1">
          <mxGeometry width="50" height="50" relative="1" as="geometry">
            <mxPoint x="410" y="420" as="sourcePoint" />
            <mxPoint x="460" y="370" as="targetPoint" />
          </mxGeometry>
        </mxCell>
        <mxCell id="sKdIwI8YulAPiQ3hanIl-4" value="&lt;font style=&quot;font-size: 12px;&quot;&gt;smtparse&lt;/font&gt;" style="edgeLabel;html=1;align=center;verticalAlign=middle;resizable=0;points=[];" parent="sKdIwI8YulAPiQ3hanIl-3" vertex="1" connectable="0">
          <mxGeometry y="-1" relative="1" as="geometry">
            <mxPoint as="offset" />
          </mxGeometry>
        </mxCell>
        <mxCell id="sKdIwI8YulAPiQ3hanIl-5" value="Attributed AST" style="rounded=0;whiteSpace=wrap;html=1;" parent="1" vertex="1">
          <mxGeometry x="340" y="360" width="120" height="40" as="geometry" />
        </mxCell>
        <mxCell id="sKdIwI8YulAPiQ3hanIl-6" value="" style="endArrow=classic;html=1;rounded=0;exitX=0.5;exitY=1;exitDx=0;exitDy=0;entryX=0.5;entryY=0;entryDx=0;entryDy=0;fontSize=12;" parent="1" source="sKdIwI8YulAPiQ3hanIl-2" target="sKdIwI8YulAPiQ3hanIl-5" edge="1">
          <mxGeometry width="50" height="50" relative="1" as="geometry">
            <mxPoint x="410" y="210" as="sourcePoint" />
            <mxPoint x="410" y="270" as="targetPoint" />
          </mxGeometry>
        </mxCell>
        <mxCell id="sKdIwI8YulAPiQ3hanIl-7" value="&lt;font style=&quot;font-size: 12px;&quot;&gt;smtanalyze&lt;br&gt;&lt;/font&gt;" style="edgeLabel;html=1;align=center;verticalAlign=middle;resizable=0;points=[];" parent="sKdIwI8YulAPiQ3hanIl-6" vertex="1" connectable="0">
          <mxGeometry y="-1" relative="1" as="geometry">
            <mxPoint as="offset" />
          </mxGeometry>
        </mxCell>
        <mxCell id="sKdIwI8YulAPiQ3hanIl-8" value="Optimized&amp;nbsp;AST" style="rounded=0;whiteSpace=wrap;html=1;" parent="1" vertex="1">
          <mxGeometry x="340" y="460" width="120" height="40" as="geometry" />
        </mxCell>
        <mxCell id="sKdIwI8YulAPiQ3hanIl-9" value="" style="endArrow=classic;html=1;rounded=0;exitX=0.5;exitY=1;exitDx=0;exitDy=0;entryX=0.5;entryY=0;entryDx=0;entryDy=0;fontSize=12;" parent="1" source="sKdIwI8YulAPiQ3hanIl-5" target="sKdIwI8YulAPiQ3hanIl-8" edge="1">
          <mxGeometry width="50" height="50" relative="1" as="geometry">
            <mxPoint x="410" y="310" as="sourcePoint" />
            <mxPoint x="410" y="370" as="targetPoint" />
          </mxGeometry>
        </mxCell>
        <mxCell id="sKdIwI8YulAPiQ3hanIl-10" value="&lt;font style=&quot;font-size: 12px;&quot;&gt;AST optimizations&lt;br&gt;&lt;/font&gt;" style="edgeLabel;html=1;align=center;verticalAlign=middle;resizable=0;points=[];" parent="sKdIwI8YulAPiQ3hanIl-9" vertex="1" connectable="0">
          <mxGeometry y="-1" relative="1" as="geometry">
            <mxPoint as="offset" />
          </mxGeometry>
        </mxCell>
        <mxCell id="sKdIwI8YulAPiQ3hanIl-12" value="Middle-level IR (SSA)" style="rounded=0;whiteSpace=wrap;html=1;" parent="1" vertex="1">
          <mxGeometry x="600" y="160" width="120" height="40" as="geometry" />
        </mxCell>
        <mxCell id="sKdIwI8YulAPiQ3hanIl-13" value="" style="endArrow=classic;html=1;rounded=0;exitX=0.5;exitY=1;exitDx=0;exitDy=0;fontSize=12;entryX=0.5;entryY=0;entryDx=0;entryDy=0;edgeStyle=orthogonalEdgeStyle;" parent="1" source="sKdIwI8YulAPiQ3hanIl-8" target="sKdIwI8YulAPiQ3hanIl-12" edge="1">
          <mxGeometry width="50" height="50" relative="1" as="geometry">
            <mxPoint x="410" y="410" as="sourcePoint" />
            <mxPoint x="410" y="470" as="targetPoint" />
            <Array as="points">
              <mxPoint x="400" y="520" />
              <mxPoint x="530" y="520" />
              <mxPoint x="530" y="140" />
              <mxPoint x="660" y="140" />
            </Array>
          </mxGeometry>
        </mxCell>
        <mxCell id="sKdIwI8YulAPiQ3hanIl-14" value="&lt;font style=&quot;font-size: 12px;&quot;&gt;smt2fuzz&lt;br&gt;&lt;/font&gt;" style="edgeLabel;html=1;align=center;verticalAlign=middle;resizable=0;points=[];" parent="sKdIwI8YulAPiQ3hanIl-13" vertex="1" connectable="0">
          <mxGeometry y="-1" relative="1" as="geometry">
            <mxPoint as="offset" />
          </mxGeometry>
        </mxCell>
        <mxCell id="sKdIwI8YulAPiQ3hanIl-15" value="Optimized SSA" style="rounded=0;whiteSpace=wrap;html=1;" parent="1" vertex="1">
          <mxGeometry x="600" y="260" width="120" height="40" as="geometry" />
        </mxCell>
        <mxCell id="sKdIwI8YulAPiQ3hanIl-16" value="" style="endArrow=classic;html=1;rounded=0;exitX=0.5;exitY=1;exitDx=0;exitDy=0;fontSize=12;" parent="1" source="sKdIwI8YulAPiQ3hanIl-12" target="sKdIwI8YulAPiQ3hanIl-15" edge="1">
          <mxGeometry width="50" height="50" relative="1" as="geometry">
            <mxPoint x="410" y="410" as="sourcePoint" />
            <mxPoint x="410" y="470" as="targetPoint" />
          </mxGeometry>
        </mxCell>
        <mxCell id="sKdIwI8YulAPiQ3hanIl-17" value="&lt;font style=&quot;font-size: 12px;&quot;&gt;SSA optimizations&lt;br&gt;&lt;/font&gt;" style="edgeLabel;html=1;align=center;verticalAlign=middle;resizable=0;points=[];" parent="sKdIwI8YulAPiQ3hanIl-16" vertex="1" connectable="0">
          <mxGeometry y="-1" relative="1" as="geometry">
            <mxPoint as="offset" />
          </mxGeometry>
        </mxCell>
        <mxCell id="sKdIwI8YulAPiQ3hanIl-18" value="LibFuzzer, AFL, ..." style="rounded=0;whiteSpace=wrap;html=1;dashed=1;" parent="1" vertex="1">
          <mxGeometry x="580" y="370" width="160" height="40" as="geometry" />
        </mxCell>
        <mxCell id="sKdIwI8YulAPiQ3hanIl-25" value="" style="endArrow=classic;html=1;rounded=0;entryX=0.5;entryY=0;entryDx=0;entryDy=0;" parent="1" target="sKdIwI8YulAPiQ3hanIl-18" edge="1">
          <mxGeometry width="50" height="50" relative="1" as="geometry">
            <mxPoint x="660" y="320" as="sourcePoint" />
            <mxPoint x="440" y="320" as="targetPoint" />
          </mxGeometry>
        </mxCell>
        <mxCell id="sKdIwI8YulAPiQ3hanIl-26" value="fuzzend2" style="edgeLabel;html=1;align=center;verticalAlign=middle;resizable=0;points=[];" parent="sKdIwI8YulAPiQ3hanIl-25" vertex="1" connectable="0">
          <mxGeometry x="-0.1779" y="-4" relative="1" as="geometry">
            <mxPoint as="offset" />
          </mxGeometry>
        </mxCell>
        <mxCell id="sKdIwI8YulAPiQ3hanIl-27" value="" style="endArrow=classic;html=1;rounded=0;edgeStyle=orthogonalEdgeStyle;entryX=0.124;entryY=0.006;entryDx=0;entryDy=0;entryPerimeter=0;" parent="1" target="sKdIwI8YulAPiQ3hanIl-18" edge="1">
          <mxGeometry width="50" height="50" relative="1" as="geometry">
            <mxPoint x="660" y="320" as="sourcePoint" />
            <mxPoint x="599.9999999999999" y="370.00000000000006" as="targetPoint" />
            <Array as="points">
              <mxPoint x="600" y="320" />
            </Array>
          </mxGeometry>
        </mxCell>
        <mxCell id="sKdIwI8YulAPiQ3hanIl-28" value="fuzzend1" style="edgeLabel;html=1;align=center;verticalAlign=middle;resizable=0;points=[];" parent="sKdIwI8YulAPiQ3hanIl-27" vertex="1" connectable="0">
          <mxGeometry x="0.469" relative="1" as="geometry">
            <mxPoint as="offset" />
          </mxGeometry>
        </mxCell>
        <mxCell id="sKdIwI8YulAPiQ3hanIl-30" value="" style="endArrow=none;html=1;rounded=0;entryX=0.5;entryY=1;entryDx=0;entryDy=0;" parent="1" target="sKdIwI8YulAPiQ3hanIl-15" edge="1">
          <mxGeometry width="50" height="50" relative="1" as="geometry">
            <mxPoint x="660" y="320" as="sourcePoint" />
            <mxPoint x="440" y="320" as="targetPoint" />
          </mxGeometry>
        </mxCell>
        <mxCell id="sKdIwI8YulAPiQ3hanIl-31" value="" style="endArrow=classic;html=1;rounded=0;edgeStyle=orthogonalEdgeStyle;entryX=0.124;entryY=0.006;entryDx=0;entryDy=0;entryPerimeter=0;" parent="1" edge="1">
          <mxGeometry width="50" height="50" relative="1" as="geometry">
            <mxPoint x="660" y="320" as="sourcePoint" />
            <mxPoint x="720" y="370" as="targetPoint" />
            <Array as="points">
              <mxPoint x="720" y="320" />
            </Array>
          </mxGeometry>
        </mxCell>
        <mxCell id="sKdIwI8YulAPiQ3hanIl-32" value="fuzzend3" style="edgeLabel;html=1;align=center;verticalAlign=middle;resizable=0;points=[];" parent="sKdIwI8YulAPiQ3hanIl-31" vertex="1" connectable="0">
          <mxGeometry x="0.469" relative="1" as="geometry">
            <mxPoint as="offset" />
          </mxGeometry>
        </mxCell>
        <mxCell id="sKdIwI8YulAPiQ3hanIl-33" value="Solution" style="rounded=0;whiteSpace=wrap;html=1;" parent="1" vertex="1">
          <mxGeometry x="600" y="460" width="120" height="40" as="geometry" />
        </mxCell>
        <mxCell id="sKdIwI8YulAPiQ3hanIl-34" value="" style="endArrow=classic;html=1;rounded=0;exitX=0.5;exitY=1;exitDx=0;exitDy=0;entryX=0.5;entryY=0;entryDx=0;entryDy=0;" parent="1" source="sKdIwI8YulAPiQ3hanIl-18" target="sKdIwI8YulAPiQ3hanIl-33" edge="1">
          <mxGeometry width="50" height="50" relative="1" as="geometry">
            <mxPoint x="530" y="370" as="sourcePoint" />
            <mxPoint x="580" y="320" as="targetPoint" />
          </mxGeometry>
        </mxCell>
        <mxCell id="sKdIwI8YulAPiQ3hanIl-36" value="Fuzz!" style="edgeLabel;html=1;align=center;verticalAlign=middle;resizable=0;points=[];" parent="sKdIwI8YulAPiQ3hanIl-34" vertex="1" connectable="0">
          <mxGeometry x="-0.0914" y="1" relative="1" as="geometry">
            <mxPoint as="offset" />
          </mxGeometry>
        </mxCell>
      </root>
    </mxGraphModel>
  </diagram>
</mxfile>
